PathFileType	4	(X/Y/Z)	/Users/visionmauri/Downloads/Videos/OAW01-top_Sports2D/OAW01-top_Sports2D_px_person00.trc
DataRate	CameraRate	NumFrames	NumMarkers	Units	OrigDataRate	OrigDataStartFrame	OrigNumFrames
26.0	26.0	11	22	m	26.0	763	2035
Frame#	Time	Hip			RHip			RKnee			RAnkle			RBigToe			RSmallToe			RHeel			LHip			LKnee			LAnkle			LBigToe			LSmallToe			LHeel			Neck			Head			Nose			RShoulder			RElbow			RWrist			LShoulder			LElbow			LWrist			
		X1	Y1	Z1	X2	Y2	Z2	X3	Y3	Z3	X4	Y4	Z4	X5	Y5	Z5	X6	Y6	Z6	X7	Y7	Z7	X8	Y8	Z8	X9	Y9	Z9	X10	Y10	Z10	X11	Y11	Z11	X12	Y12	Z12	X13	Y13	Z13	X14	Y14	Z14	X15	Y15	Z15	X16	Y16	Z16	X17	Y17	Z17	X18	Y18	Z18	X19	Y19	Z19	X20	Y20	Z20	X21	Y21	Z21	X22	Y22	Z22
763	29.36058165040466	529.1535217843807	551.6354958555194	0.0	547.9350030921428	551.7696503527635	0.0	539.9795280064369	630.4522007651616	0.0	533.9595842554876	706.9363798603586	0.0	527.1574136770682	719.6947365309545	0.0	543.5630819962462	725.0634934138418	0.0	532.1795937782022	722.3705509483523	0.0	510.7904488901473	552.265504187785	0.0	507.0100205472973	626.2257671975023	0.0	509.71250374229044	692.9019451300803	0.0	510.1001292628727	703.7933398508546	0.0	499.0178330231868	707.0535405083023	0.0	511.6906902938759	707.6349801767267	0.0	526.360422777002	445.980515459734	0.0	523.1543715636026	396.0230626370687	0.0	518.2576922637826	424.0272293136181	0.0	562.3913941395803	458.4062627308464	0.0	572.9026088633044	508.6431356634477	0.0	576.3996232747198	553.3529284449145	0.0	494.07025855461643	457.53316658666483	0.0	488.2146828759525	514.1478325128479	0.0	484.0517122653674	564.3120731035423	0.0
764	29.399062098177147	528.902355209723	551.6436880145773	0.0	547.6834950966108	552.389047200114	0.0	539.8473251919332	630.8760330193455	0.0	534.1821021185173	706.9863035686883	0.0	527.427486415352	719.5759499903589	0.0	542.9931538775234	724.6604326970152	0.0	532.203778300428	722.3249805024236	0.0	510.1676589463641	552.8265911693614	0.0	506.59237640566255	626.2874728536942	0.0	508.8810947791845	692.6567430871338	0.0	508.7594608678374	699.4527280755902	0.0	497.778655570458	703.6639626387804	0.0	510.7923847039676	706.5357324573197	0.0	526.1442604708425	446.66098363295123	0.0	522.1916522289978	396.7887348677536	0.0	516.2716364796906	424.12794860403426	0.0	561.6973801751013	458.5808537681689	0.0	572.6234055909362	507.969638552128	0.0	575.5001918571461	552.4169902441151	0.0	493.85952564993795	457.6851779963002	0.0	488.7153993701469	514.3279661680383	0.0	485.1874641745177	564.7415608044057	0.0
765	29.43754254594963	528.6129868087138	552.0761997351636	0.0	547.1961395826308	552.8350535557302	0.0	539.8334992873572	630.4312610126885	0.0	534.2624325174434	707.1164447275474	0.0	527.7718689138607	719.3315219890668	0.0	542.9480580100073	724.2567033761126	0.0	532.2244435738259	721.6271337728825	0.0	509.86842521173685	553.8210339749883	0.0	506.3342491182924	626.1085623652475	0.0	508.32759470723084	690.4386149329612	0.0	507.5601989189721	695.0685788145213	0.0	497.23223637907915	699.5772964013095	0.0	510.2779984777576	703.9969475850805	0.0	525.5649621549305	446.8556288439765	0.0	522.062611875093	397.98379714403046	0.0	515.8368611503348	425.8432244405343	0.0	560.8997616090971	458.5015895570329	0.0	571.5905224753308	508.3866211515193	0.0	574.3895538476949	552.3902529238401	0.0	493.34534905997714	457.8532241995863	0.0	488.97953417923236	514.1336176222138	0.0	485.855588381034	564.6268577200157	0.0
766	29.47602299372211	527.8780156497277	552.5189815016224	0.0	546.2670330272518	553.073311069977	0.0	539.2831932399597	629.1314712564114	0.0	534.2161917727782	706.7587786398256	0.0	528.0483108681152	719.3393146955033	0.0	543.1711804693934	723.923692788532	0.0	532.2016981067844	720.5901310694009	0.0	509.569351508267	554.5062761306641	0.0	506.38309172364154	625.434296835636	0.0	508.2857712280002	687.7428126102998	0.0	507.8190596236678	692.5066912364799	0.0	497.6321373272023	696.3096378565008	0.0	510.2638230899579	701.6344966189208	0.0	524.1336530640027	447.0178094303569	0.0	520.6856736949583	399.27921034063564	0.0	514.5774722298312	428.32064955468104	0.0	559.3801453117012	458.3854967323986	0.0	570.2075389604184	509.1517847410869	0.0	572.8363553923965	552.8950241299459	0.0	492.27182463140593	458.2204677523526	0.0	488.32052691444363	514.1639719508613	0.0	485.4171656532696	564.558604993893	0.0
767	29.514503441494597	526.4689510929832	552.00408746172	0.0	544.6419367684772	552.8232643356907	0.0	537.9009735490513	627.1475555798139	0.0	534.245480469816	705.4206652966194	0.0	528.423002841698	719.455424760894	0.0	543.8123360999639	723.3520452235507	0.0	532.2767653606993	719.5862204648091	0.0	508.5659225372157	554.0566423541063	0.0	506.59682914507266	624.2535190684447	0.0	508.1994683381835	686.0358405211167	0.0	509.8021960590158	692.1782999723596	0.0	498.34168894366087	694.9530093511033	0.0	510.11471323892044	700.4065535763067	0.0	521.847145215275	447.4400976848854	0.0	516.889166892592	400.2029296315203	0.0	511.3414522607815	429.84446115929114	0.0	556.7458514699562	458.0178352948113	0.0	568.4535256355555	509.00478902298664	0.0	570.8662150902259	553.1518671927614	0.0	490.5851223334957	458.53164594641675	0.0	486.6708373271913	514.0911149848595	0.0	483.85524236988425	563.8286987864482	0.0
768	29.55298388926708	524.6955793553625	550.3992238325942	0.0	542.5590774844637	551.4446400890042	0.0	536.299873445229	625.0980945442883	0.0	534.4174201634816	703.044800773429	0.0	528.8953655971992	718.5647420688205	0.0	544.6274384581814	721.9341105279236	0.0	532.5201852505186	718.4106102639063	0.0	507.14654668067084	552.5298289418124	0.0	506.4313963953226	622.8880035341663	0.0	507.78884797005	685.5774218306327	0.0	511.8554236628908	692.0369829927663	0.0	498.5430283334745	694.8087010125098	0.0	509.65602956426306	700.0613134290303	0.0	519.477706841356	447.57451290796917	0.0	513.1772950536509	401.1516169765335	0.0	507.5414448767732	430.49560543769	0.0	554.0117905051582	457.0639458351135	0.0	566.1570881261689	507.7355890164013	0.0	568.9089162640324	552.687796646407	0.0	488.67122370163963	458.1098912708172	0.0	484.69046428605867	513.2227315503889	0.0	481.6896833381493	561.7575165072142	0.0
769	29.59146433703956	522.9846278933976	548.43355189584	0.0	540.5718481668578	548.7936903569195	0.0	535.2173438715731	623.4108413900346	0.0	534.5569766849095	698.6916790365568	0.0	529.3891332972621	715.8322287388452	0.0	544.9604884488127	718.9449564237395	0.0	532.5452017708136	715.2100313410568	0.0	505.819241562404	550.3607894997532	0.0	505.52608171367683	621.72291050144	0.0	507.4024888305518	685.9007789976793	0.0	513.0294118030506	691.2319602883473	0.0	498.33456351018225	694.8926751662883	0.0	509.315232095239	700.1830527506182	0.0	518.0937042641106	446.98723563386307	0.0	512.502322253601	402.24601349780545	0.0	504.2425161815507	431.14174717219004	0.0	552.5167959637126	455.8331233091106	0.0	563.7679070589693	506.27598738567025	0.0	567.2638069256764	551.6520514198777	0.0	487.1849956621094	456.71726015435615	0.0	482.7847618583944	511.86573530233267	0.0	479.26718950161927	559.2518289738061	0.0
770	29.629944784812047	521.2108951033682	546.3155296777618	0.0	538.9057429650435	546.0530393740524	0.0	534.4963959967623	621.3417654927175	0.0	534.5125021647962	690.9136574473866	0.0	529.7735594625184	711.9732215755793	0.0	544.881745547741	714.3624445016475	0.0	532.0174619146757	707.6200760063214	0.0	504.0794431529303	547.8967272597419	0.0	504.21277116585077	620.6014702048918	0.0	507.31429455662584	686.3146305107607	0.0	513.7269902459426	691.1194557793598	0.0	498.22803408342116	695.112028659441	0.0	509.21479267553906	700.4173923125279	0.0	517.7687891683395	445.5232351721691	0.0	514.3790026405626	402.57742150841335	0.0	501.8366651721099	430.96719385930413	0.0	552.0565668331537	454.79651670597457	0.0	561.758476552859	505.3684953961223	0.0	565.7513086013979	550.570617079115	0.0	486.378020256603	454.6108628423286	0.0	480.7187465307177	510.1275800208344	0.0	476.579659065334	556.8884935774774	0.0
771	29.66842523258453	519.1912833002888	543.8271295532354	0.0	537.4489871929443	544.62151334439	0.0	533.5427722963493	618.3050435444368	0.0	534.1407894434233	681.3193010005155	0.0	529.9099878799886	708.5001249831622	0.0	544.8077643240212	709.4916861992584	0.0	531.2935547336543	697.1554852094634	0.0	501.57287866243894	545.6828757418917	0.0	503.0500232875545	619.1709267598533	0.0	507.21908676757306	686.4448556841098	0.0	513.5752315138582	692.0543908828467	0.0	498.20094630725276	695.4702627974873	0.0	508.9477826869957	700.1580084047738	0.0	517.6960848201275	442.68492803527846	0.0	516.9308942990996	401.2005809725223	0.0	502.4392977673369	428.67829117593055	0.0	551.6479517517938	453.8306832841841	0.0	560.0929811078166	504.6798335799382	0.0	564.1257669055593	549.6421731012248	0.0	485.9973785513823	452.0338074242678	0.0	478.3560479957096	506.9037464759516	0.0	473.738675222033	553.4789262875257	0.0
772	29.70690568035701	517.4167279019514	541.5612440681593	0.0	536.0652491119156	543.7778636606338	0.0	532.4699200117864	614.9951560661306	0.0	533.3131890134924	674.361136678747	0.0	529.961960215631	704.991583451681	0.0	544.6660185863702	704.9568403175441	0.0	530.770605233592	689.3435383675564	0.0	499.2961642487215	543.9241276710592	0.0	502.2058690589706	617.5197082778731	0.0	506.79347346900056	686.0920542515381	0.0	512.6153994050725	693.0010239294738	0.0	498.45872830431983	695.7180298683961	0.0	508.4887034230212	699.2471773351009	0.0	517.4801843590055	439.3013086211168	0.0	519.1613399970759	398.51678141857315	0.0	508.49257965183034	425.15498886385313	0.0	551.068230852537	452.83668259751954	0.0	558.8958431918793	503.59875308941156	0.0	562.5495106383352	548.8607325860129	0.0	485.73695633209195	449.6309485694821	0.0	476.0141296242176	502.3130168802003	0.0	471.19097863582635	548.7221898604173	0.0
773	29.745386128129496	516.2531807233125	540.0931454106869	0.0	534.770606954001	541.960087805257	0.0	531.6784630703231	612.1051020530875	0.0	532.3844053279954	672.2629814900788	0.0	530.1863459743795	699.8206422728233	0.0	544.1489783043831	700.0640286654575	0.0	530.3763598983992	687.0349896696772	0.0	498.12649735417284	542.2365780386706	0.0	501.66222667939405	615.9170337512394	0.0	506.2970609921877	685.0661605253518	0.0	512.2980857707106	693.2004646844973	0.0	499.3483141148384	695.7463573412753	0.0	508.3225468651293	698.2900885280736	0.0	517.3205857852352	437.48675569714106	0.0	520.5185203499768	395.8153684102589	0.0	517.0800248159129	422.19461781893585	0.0	550.5326876302528	452.1242963477147	0.0	558.2534932139314	502.50729585296347	0.0	561.3571353353525	548.6175113215778	0.0	485.35282970028413	448.0903690527814	0.0	474.0864803196689	498.4994875231188	0.0	469.29966905824443	544.1685114444681	0.0
